<svg xmlns="http://www.w3.org/2000/svg" xmlns:osb="http://www.openswatchbook.org/uri/2009/osb" id="svg8" width="48" height="48" version="1.1" viewBox="0 0 12.7 12.7"><title id="title4753">UIO-icon</title><metadata id="metadata5"/><g id="layer1" fill="#333" transform="translate(0,-284.3)"><path id="path878" fill-rule="evenodd" d="m24 4a20 20 0 0 0 -20 20 20 20 0 0 0 20 20 20 20 0 0 0 20 -20 20 20 0 0 0 -20 -20zm-1.5605 8.832h2.9531l-0.213 15.91h-2.543zm1.5527 19.139c0.54812 0 0.96384 0.158 1.248 0.47266 0.28421 0.30451 0.42773 0.68386 0.42773 1.1406 0 0.45677-0.14352 0.83807-0.42773 1.1426-0.28421 0.29436-0.69993 0.44141-1.248 0.44141-0.54812 0-0.96384-0.14705-1.248-0.44141-0.27406-0.30451-0.41211-0.68581-0.41211-1.1426 0-0.45677 0.13805-0.83611 0.41211-1.1406 0.28421-0.31466 0.69993-0.47266 1.248-0.47266z" transform="matrix(.26458 0 0 .26458 0 284.3)"/></g></svg>