<svg xmlns="http://www.w3.org/2000/svg" xmlns:osb="http://www.openswatchbook.org/uri/2009/osb" id="svg8" width="48" height="48" version="1.1" viewBox="0 0 12.7 12.7"><title id="title4753">UIO-icon</title><metadata id="metadata5"/><g id="layer1" fill="#333" transform="translate(0,-284.3)"><path id="path879" d="m24 4-20 40h40zm0 1.1484 19.162 38.338h-38.328zm-1.5605 11.684 0.19727 15.91h2.543l0.21289-15.91zm0.52539 0.50781h1.9062l-0.19922 14.889-1.5273 0.003906zm1.0273 18.631c-0.54812 0-0.96384 0.15799-1.248 0.47266-0.27406 0.30451-0.41211 0.68386-0.41211 1.1406 0 0.45677 0.13805 0.83807 0.41211 1.1426 0.28421 0.29436 0.69993 0.44141 1.248 0.44141 0.54812 0 0.96384-0.14704 1.248-0.44141 0.28421-0.30451 0.42773-0.68581 0.42773-1.1426 0-0.45677-0.14352-0.83611-0.42773-1.1406-0.28421-0.31466-0.69993-0.47266-1.248-0.47266zm-0.17188 0.51367h0.32031c0.33388 0.02189 0.97783 0.18211 1 0.98828v0.32031c-0.11179 0.70969-0.52189 0.79377-0.93945 0.86133h-0.32031c-0.65086-0.01909-0.95925-0.34988-1.0332-0.89453v-0.32031c0.069072-0.59246 0.34207-0.96574 0.97266-0.95508z" transform="matrix(.26458 0 0 .26458 0 284.3)"/></g></svg>