<svg xmlns="http://www.w3.org/2000/svg" xmlns:osb="http://www.openswatchbook.org/uri/2009/osb" id="svg8" width="48" height="48" version="1.1" viewBox="0 0 12.7 12.7"><title id="title4753">UIO-icon</title><metadata id="metadata5"/><g id="layer1" fill="#333" transform="translate(0,-284.3)"><path id="path878" fill-rule="evenodd" d="m24 8.0098a15.99 15.99 0 0 0 -15.99 15.99 15.99 15.99 0 0 0 15.99 15.99 15.99 15.99 0 0 0 15.99 -15.99 15.99 15.99 0 0 0 -15.99 -15.99zm0 0.54297a15.447 15.447 0 0 1 15.447 15.447 15.447 15.447 0 0 1 -15.447 15.447 15.447 15.447 0 0 1 -15.447 -15.447 15.447 15.447 0 0 1 15.447 -15.447z" transform="matrix(.26458 0 0 .26458 0 284.3)"/></g></svg>