<svg xmlns="http://www.w3.org/2000/svg" xmlns:osb="http://www.openswatchbook.org/uri/2009/osb" id="svg8" width="48" height="48" version="1.1" viewBox="0 0 12.7 12.7"><title id="title4753">UIO-icon</title><metadata id="metadata5"/><g id="layer1" fill="#333" transform="translate(0,-284.3)"><path id="path878" fill-rule="evenodd" d="m24 12a12 12 0 0 0 -12 12 12 12 0 0 0 12 12 12 12 0 0 0 12 -12 12 12 0 0 0 -12 -12zm0 0.51953a11.48 11.48 0 0 1 11.48 11.48 11.48 11.48 0 0 1 -11.48 11.48 11.48 11.48 0 0 1 -11.48 -11.48 11.48 11.48 0 0 1 11.48 -11.48z" transform="matrix(.26458 0 0 .26458 0 284.3)"/></g></svg>