<svg xmlns="http://www.w3.org/2000/svg" xmlns:osb="http://www.openswatchbook.org/uri/2009/osb" id="svg8" width="48" height="48" version="1.1" viewBox="0 0 12.7 12.7"><title id="title4753">UIO-icon</title><metadata id="metadata5"/><g id="layer1" fill="#333" transform="translate(0,-284.3)"><path id="path878" fill-rule="evenodd" d="m24 4a20 20 0 0 0 -20 20 20 20 0 0 0 20 20 20 20 0 0 0 20 -20 20 20 0 0 0 -20 -20zm0 0.51953a19.48 19.48 0 0 1 19.48 19.48 19.48 19.48 0 0 1 -19.48 19.48 19.48 19.48 0 0 1 -19.48 -19.48 19.48 19.48 0 0 1 19.48 -19.48z" transform="matrix(.26458 0 0 .26458 0 284.3)"/></g></svg>