<svg xmlns="http://www.w3.org/2000/svg" xmlns:svg="http://www.w3.org/2000/svg" id="svg8" width="48" height="48" version="1.1" viewBox="0 0 12.7 12.7"><title id="title4753">UIO-icon</title><metadata id="metadata5"/><g id="layer1" transform="matrix(-1,0,0,1,12.69984,-284.3)"><path id="rect5009" fill="#333" fill-rule="evenodd" d="M 0,0 V 48 H 48 V 0 Z m 13.689,8.0977 c 1.933,-10e-8 3.5,1.567 3.5,3.5 0,1.933 -1.567,3.5 -3.5,3.5 -1.933,0 -3.5,-1.567 -3.5,-3.5 0,-1.933 1.567,-3.5 3.5,-3.5 z m 21.037,0 c 1.933,0 3.5,1.567 3.5,3.5 10e-7,1.933 -1.567,3.5 -3.5,3.5 -1.933,0 -3.5,-1.567 -3.5,-3.5 0,-1.933 1.567,-3.5 3.5,-3.5 z M 13.342,15.959 h 3.875 v 0.0078 c 0.57534,0.0075 1.124,0.32655 1.3945,0.88086 l 3.8691,7.9258 c 0.38289,0.78459 0.05998,1.7245 -0.72461,2.1074 -0.78459,0.38287 -1.7245,0.05998 -2.1074,-0.72461 l -2.4316,-4.9824 v 17.188 c 0,0.87303 -0.70314,1.5762 -1.5762,1.5762 -0.87303,0 -1.5762,-0.70314 -1.5762,-1.5762 v -9.269 h -0.75977 v 9.2676 c 0,0.87303 -0.70314,1.5762 -1.5762,1.5762 -0.87303,0 -1.5742,-0.70314 -1.5742,-1.5762 v -17.176 l -2.4265,4.97 c -0.3829,0.785 -1.3209,1.108 -2.1055,0.725 -0.7845,-0.383 -1.1094,-1.323 -0.7265,-2.108 l 3.8691,-7.925 c 0.26937,-0.552 0.81597,-0.86757 1.3887,-0.87891 v -0.0078 z m 21.037,0 h 3.875 v 0.0078 c 0.57534,0.0075 1.124,0.32655 1.3945,0.88086 l 3.8691,7.9258 c 0.38289,0.78459 0.05998,1.7245 -0.72461,2.1074 -0.78459,0.38287 -1.7245,0.05998 -2.1074,-0.72461 l -2.4316,-4.9824 c 0,3.7635 0.39047,6.2572 2.2207,10.076 h -2.2207 v 7.1113 c 0,0.87303 -0.70314,1.5762 -1.5762,1.5762 -0.87303,0 -1.5762,-0.70314 -1.5762,-1.5762 v -7.112 h -0.75976 v 7.1113 c 0,0.87303 -0.70314,1.5762 -1.5762,1.5762 -0.87303,0 -1.5742,-0.70314 -1.5742,-1.5762 v -7.111 h -2.2168 c 2.0451,-3.9599 2.276,-6.6783 2.2168,-10.064 l -2.4258,4.9707 c -0.38289,0.78471 -1.3209,1.1075 -2.1055,0.72461 -0.78459,-0.38287 -1.1095,-1.3229 -0.72656,-2.1074 l 3.8691,-7.9258 c 0.26937,-0.552 0.81597,-0.86757 1.3887,-0.87891 v -0.0078 z" transform="matrix(0.26458,0,0,0.26458,0,284.3)"/></g></svg>