<svg xmlns="http://www.w3.org/2000/svg" xmlns:osb="http://www.openswatchbook.org/uri/2009/osb" id="svg8" width="48" height="48" version="1.1" viewBox="0 0 12.7 12.7"><title id="title4753">UIO-icon</title><metadata id="metadata5"/><g id="layer1" fill="#333" transform="translate(0,-284.3)"><path id="path1244" fill-rule="evenodd" d="m24 4c-11.046-3.78e-7 -20 8.9543-20 20-3.33e-7 11.046 8.9543 20 20 20 11.046 3.8e-7 20-8.9543 20-20 3.4e-7 -11.046-8.9543-20-20-20zm0 0.51758c10.76 0 19.482 8.7224 19.482 19.482s-8.722 19.482-19.482 19.482-19.482-8.722-19.482-19.482c-0.0004-10.76 8.722-19.482 19.482-19.482zm-6.854 9.3654c-1.9522 0.00027622-3.5347 2.097-3.5352 4.6836-0.00040213 2.5874 1.5824 4.6853 3.5352 4.6855 1.9535 0.001153 3.5375-2.0971 3.5371-4.6855-0.00041188-2.5877-1.5842-4.6847-3.5371-4.6836zm12.904 0c-1.9522 0.00027623-3.5347 2.097-3.5352 4.6836-0.00040213 2.5874 1.5824 4.6853 3.5352 4.6855 1.9535 0.001153 3.5375-2.0971 3.5371-4.6855-0.00041188-2.5877-1.5842-4.6847-3.5371-4.6836zm-18.914 14.447v0.51367h0.027344c0.18312 3.6161 2.5202 6.9031 6.1992 8.7188 3.8561 1.896 8.6079 1.8967 12.465 0.001953 3.6872-1.812 6.0323-5.1006 6.2188-8.7207h0.016v-0.51367z" transform="matrix(.26458 0 0 .26458 0 284.3)"/></g></svg>