<svg xmlns="http://www.w3.org/2000/svg" xmlns:osb="http://www.openswatchbook.org/uri/2009/osb" id="svg8" width="48" height="48" version="1.1" viewBox="0 0 12.7 12.7"><title id="title4753">UIO-icon</title><metadata id="metadata5"/><g id="layer1" fill="#333" transform="translate(0,-284.3)"><path id="circle903" fill-rule="evenodd" d="m24 4.1992a19.801 19.801 0 0 0 -19.801 19.801 19.801 19.801 0 0 0 19.801 19.801 19.801 19.801 0 0 0 19.801 -19.801 19.801 19.801 0 0 0 -19.801 -19.801zm0 0.5196a19.281 19.281 0 0 1 19.281 19.281 19.281 19.281 0 0 1 -19.281 19.281 19.281 19.281 0 0 1 -19.281 -19.281 19.281 19.281 0 0 1 19.281 -19.281zm0 2.7617a16.52 16.52 0 0 0 -16.52 16.52 16.52 16.52 0 0 0 16.52 16.52 16.52 16.52 0 0 0 16.52 -16.52 16.52 16.52 0 0 0 -16.52 -16.52zm0 0.5195a16 16 0 0 1 16 16 16 16 0 0 1 -16 16 16 16 0 0 1 -16 -16 16 16 0 0 1 16 -16z" transform="matrix(.26458 0 0 .26458 0 284.3)"/></g></svg>