<svg xmlns="http://www.w3.org/2000/svg" xmlns:osb="http://www.openswatchbook.org/uri/2009/osb" id="svg8" width="48" height="48" version="1.1" viewBox="0 0 12.7 12.7"><title id="title4753">UIO-icon</title><metadata id="metadata5"/><g id="layer1" fill="#333" transform="translate(0,-284.3)"><path id="circle903" fill-rule="evenodd" d="m24 4.1992c-10.936 0-19.801 8.8648-19.801 19.801 0.0002 10.936 8.865 19.801 19.801 19.801s19.801-8.865 19.801-19.801-8.865-19.801-19.801-19.801zm0 3.8008c8.8366-4.64e-7 16 7.1634 16 16 4.6e-7 8.8366-7.1634 16-16 16-8.8366 4.6e-7 -16-7.1634-16-16-4.64e-7 -8.8366 7.1634-16 16-16z" transform="matrix(.26458 0 0 .26458 0 284.3)"/></g></svg>