<svg xmlns="http://www.w3.org/2000/svg" xmlns:svg="http://www.w3.org/2000/svg" id="svg8" width="48" height="48" version="1.1" viewBox="0 0 12.7 12.7"><title id="title4753">UIO-icon</title><metadata id="metadata5"/><g id="layer1" fill="#1a1a1a" transform="translate(0,-284.3)"><path id="path890" fill="#1a1a1a" fill-rule="evenodd" d="m 5.7344,4 c 1.5592,5.8787 -4.5822,3.845 0,9 -2.3092,-4.4725 4.5826,-3.845 0,-9 z M 11.84,4 c 1.559,5.8787 -4.5824,3.845 0,9 -2.3094,-4.4725 4.582,-3.845 0,-9 z m 6.103,0 c 1.56,5.8787 -4.582,3.845 0,9 -2.309,-4.4725 4.583,-3.845 0,-9 z m 6.106,0 c 1.559,5.8787 -4.582,3.845 0,9 -2.309,-4.4725 4.582,-3.845 0,-9 z m 6.103,0 c 1.56,5.8787 -4.582,3.845 0,9 -2.309,-4.4725 4.583,-3.845 0,-9 z m 6.106,0 c 1.559,5.8787 -4.582,3.845 0,9 -2.309,-4.4725 4.582,-3.845 0,-9 z m 6.103,0 c 1.56,5.8787 -4.582,3.845 0,9 -2.309,-4.4725 4.583,-3.845 0,-9 z M 4.047,17 A 20,20 0 0 0 24.004,36.123 20,20 0 0 0 43.973,17 Z m 0.0859,23 c -0.0734,0 -0.1328,0.059 -0.1328,0.133 v 3.734 c 0,0.074 0.0594,0.133 0.1328,0.133 h 39.734 c 0.074,0 0.133,-0.059 0.133,-0.133 v -3.734 c 0,-0.074 -0.059,-0.133 -0.133,-0.133 z" transform="matrix(0.26458,0,0,0.26458,0,284.3)"/></g></svg>