<svg xmlns="http://www.w3.org/2000/svg" xmlns:osb="http://www.openswatchbook.org/uri/2009/osb" id="svg8" width="48" height="48" version="1.1" viewBox="0 0 12.7 12.7"><title id="title4753">UIO-icon</title><metadata id="metadata5"/><g id="layer1" fill="#333" transform="translate(0,-284.3)"><path id="path890" fill-rule="evenodd" d="m5.7344 4c1.5592 5.8787-4.5822 3.845 0 9-2.3092-4.4725 4.5822-3.845 0-9zm6.1055 0c1.5592 5.8787-4.5822 3.845 0 9-2.3092-4.4725 4.5822-3.845 0-9zm6.1035 0c1.5592 5.8787-4.5822 3.845 0 9-2.3092-4.4725 4.5822-3.845 0-9zm6.1055 0c1.5592 5.8787-4.5822 3.845 0 9-2.3092-4.4725 4.5822-3.845 0-9zm6.1035 0c1.5592 5.8787-4.5822 3.845 0 9-2.3092-4.4725 4.5822-3.845 0-9zm6.1055 0c1.5592 5.8787-4.5822 3.845 0 9-2.3092-4.4725 4.5822-3.845 0-9zm6.1035 0c1.5592 5.8787-4.5822 3.845 0 9-2.3092-4.4725 4.5822-3.845 0-9zm-38.317 13c0.4689 10.685 9.2611 19.11 19.957 19.123 10.7-0.006 19.499-8.433 19.969-19.123zm0.51417 0.49782 38.898 0.016083c-0.358 8.385-7.748 17.561-19.611 18.096-11.374-0.054-18.93-9.731-19.287-18.112zm-0.4283 22.502c-0.0734 0-0.1328 0.059-0.1328 0.133v3.7344c0 0.074 0.0594 0.133 0.1328 0.133h39.734c0.074 0 0.133-0.059 0.133-0.133v-3.7344c0-0.074-0.059-0.133-0.133-0.133zm0.38086 0.51367h38.97v2.978h-38.97z" transform="matrix(.26458 0 0 .26458 0 284.3)"/></g></svg>