<svg xmlns="http://www.w3.org/2000/svg" xmlns:osb="http://www.openswatchbook.org/uri/2009/osb" id="svg8" width="48" height="48" version="1.1" viewBox="0 0 12.7 12.7"><title id="title4753">UIO-icon</title><metadata id="metadata5"/><g id="layer1" transform="translate(0,-284.3)"><path id="path2300" fill="#333" fill-rule="evenodd" stroke-width=".265" d="m6.3503 285.36c-2.9225-0.0000368-5.2917 2.3691-5.2917 5.2917-0.00003684 2.9225 2.3691 5.2917 5.2917 5.2917 2.9223-0.0002486 5.2912-2.3693 5.2911-5.2917 0.00003685-2.9223-2.3688-5.2914-5.2911-5.2917zm0 0.13746c2.8464 0.000181 5.1538 2.3078 5.1537 5.1542-0.00018101 2.8462-2.3075 5.1535-5.1537 5.1537-2.8464 0.0001045-5.154-2.3073-5.1542-5.1537-0.00010439-2.8466 2.3076-5.1543 5.1542-5.1542zm2.3993 0.91002a0.87643 0.87643 0 0 0 -0.87643 0.87643 0.87643 0.87643 0 0 0 0.87643 0.87643 0.87643 0.87643 0 0 0 0.87643 -0.87643 0.87643 0.87643 0 0 0 -0.87643 -0.87643zm-4.8121 0.33073a0.87643 0.87643 0 0 0 -0.87643 0.87643 0.87643 0.87643 0 0 0 0.87643 0.87643 0.87643 0.87643 0 0 0 0.87643 -0.87643 0.87643 0.87643 0 0 0 -0.87643 -0.87643zm4.8121 0.14883a0.39687 0.39687 0 0 1 0.39688 0.39688 0.39687 0.39687 0 0 1 -0.39688 0.39688 0.39687 0.39687 0 0 1 -0.39688 -0.39688 0.39687 0.39687 0 0 1 0.39688 -0.39688zm-2.3993 1.5984c-1.1964-0.000015-2.1663 0.96989-2.1663 2.1663-0.00001506 1.1964 0.96989 2.1663 2.1663 2.1663 1.1963-0.0001017 2.1658-0.96997 2.1658-2.1663 0.000015081-1.1963-0.96946-2.1662-2.1658-2.1663zm0 0.12247c1.1286 0.0000717 2.0433 0.91524 2.0433 2.0438-0.000071778 1.1285-0.9148 2.0432-2.0433 2.0433-1.1286 0.0000414-2.0437-0.91472-2.0438-2.0433-0.000041392-1.1286 0.91516-2.0438 2.0438-2.0438zm-1.0899 1.0904a0.87643 0.87643 0 0 0 -0.87643 0.87643 0.87643 0.87643 0 0 0 0.87643 0.87643 0.87643 0.87643 0 0 0 0.87643 -0.87643 0.87643 0.87643 0 0 0 -0.87643 -0.87643zm4.1341 1.3725a0.87643 0.87643 0 0 0 -0.87643 0.87643 0.87643 0.87643 0 0 0 0.87643 0.87643 0.87643 0.87643 0 0 0 0.87643 -0.87643 0.87643 0.87643 0 0 0 -0.87643 -0.87643zm-4.5475 2.4474a0.87643 0.87643 0 0 0 -0.87643 0.87643 0.87643 0.87643 0 0 0 0.87643 0.87643 0.87643 0.87643 0 0 0 0.87643 -0.87643 0.87643 0.87643 0 0 0 -0.87643 -0.87643zm0 0.47956a0.39687 0.39687 0 0 1 0.39688 0.39688 0.39687 0.39687 0 0 1 -0.39688 0.39688 0.39687 0.39687 0 0 1 -0.39688 -0.39688 0.39687 0.39687 0 0 1 0.0020669 -0.039791 0.39687 0.39687 0 0 1 0.39481 -0.35708z"/></g></svg>