<svg xmlns="http://www.w3.org/2000/svg" xmlns:osb="http://www.openswatchbook.org/uri/2009/osb" id="svg8" width="48" height="48" version="1.1" viewBox="0 0 12.7 12.7"><title id="title4753">UIO-icon</title><metadata id="metadata5"/><g id="layer1" fill="#333" transform="translate(0,-284.3)"><path id="rect878" fill-rule="evenodd" d="m24 6.1973c-0.452 0-0.816 0.3643-0.816 0.8164v33.97c0 0.452 0.364 0.817 0.816 0.817s0.816-0.365 0.816-0.817v-33.97c0-0.4524-0.364-0.8167-0.816-0.8167zm0 0.5293c0.167 0 0.301 0.1341 0.301 0.3007v34c0 0.167-0.134 0.301-0.301 0.301s-0.301-0.134-0.301-0.301v-34c0-0.1663 0.134-0.3004 0.301-0.3004z" transform="matrix(.26458 0 0 .26458 0 284.3)"/></g></svg>