<svg xmlns="http://www.w3.org/2000/svg" xmlns:osb="http://www.openswatchbook.org/uri/2009/osb" id="svg8" width="48" height="48" version="1.1" viewBox="0 0 12.7 12.7"><title id="title4753">UIO-icon</title><metadata id="metadata5"/><g id="layer1" transform="translate(0,-284.3)"><path id="rect4806" fill="#333" fill-rule="evenodd" d="m0 0v48h48v-48h-48zm24.002 4.0273a4.3911 4.3911 0 0 1 4.391 4.3907 4.3911 4.3911 0 0 1 -4.391 4.391 4.3911 4.3911 0 0 1 -4.393 -4.391 4.3911 4.3911 0 0 1 4.393 -4.3907zm-0.438 9.8637h0.864 3.998v0.009c0.722 0.01 1.41 0.41 1.75 1.106l4.853 9.943c0.481 0.985 0.076 2.164-0.908 2.645-0.984 0.48-2.164 0.076-2.644-0.908l-3.051-6.252v7.011 1.487 1.439 11.627c0 1.095-0.881 1.977-1.977 1.977-1.095 0-1.978-0.882-1.978-1.977v-11.627h-0.043-0.864-0.046v11.627c0 1.095-0.882 1.977-1.977 1.977s-1.975-0.882-1.975-1.977v-11.627-1.439-1.487-6.996l-3.045 6.237c-0.48 0.984-1.656 1.388-2.64 0.908-0.984-0.481-1.393-1.66-0.912-2.645l4.855-9.943c0.338-0.693 1.024-1.087 1.742-1.102v-0.011l3.998-0.002z" transform="matrix(.26458 0 0 .26458 0 284.3)"/></g></svg>