<svg xmlns="http://www.w3.org/2000/svg" id="svg8" width="48" height="48" version="1.1" viewBox="0 0 12.7 12.7"><title id="title4753">UIO-icon</title><metadata id="metadata5"/><g id="layer1" transform="translate(0,-284.3)"><path id="rect4828" fill="#333" d="m0 0v48h48v-48h-48zm18 4h4v2h2v6.562c7.049 1.832 11.971 8.192 11.977 15.475-0.006 2.621-0.667 5.185-1.889 7.481 0.566 0.703 0.876 1.579 0.877 2.482-0.002 0.703-0.191 1.394-0.547 2-0.418 1-0.418 1 0.582 1.002v2.998h-23v-3.016c0-0.991-0.001-0.984 0.99-0.984h14.59c-0.356-0.607-0.544-1.297-0.545-2 0.002-0.703 0.191-1.394 0.547-2h-11.582v-4h15.41c0.478-1.311 0.724-2.695 0.729-4.09-0.007-5.145-3.274-9.72-8.139-11.394v5.484h-2v1h-4v-1h-2v-16h2v-2zm0 20h4v1h-4v-1zm13 12.135c-1.03 0-1.865 0.835-1.865 1.865s0.835 1.865 1.865 1.865 1.865-0.835 1.865-1.865-0.835-1.865-1.865-1.865z" transform="matrix(.26458 0 0 .26458 0 284.3)"/></g></svg>