<svg xmlns="http://www.w3.org/2000/svg" id="svg8" width="48" height="48" version="1.1" viewBox="0 0 12.7 12.7"><title id="title4753">UIO-icon</title><metadata id="metadata5"/><g id="layer1" transform="translate(0,-284.3)"><path id="rect4788" fill="#333" d="m4.7625 285.36v0.52917h-0.5292v4.2333h0.52917v0.26459h1.0583v-0.26459h0.52917v-1.4511c1.2871 0.44313 2.1517 1.6536 2.1534 3.0148-0.00121 0.36913-0.06643 0.73526-0.19275 1.0821h-4.0773v1.0583h3.0644c-0.094322 0.16043-0.14426 0.34306-0.14469 0.52917 0.0002645 0.18605 0.050036 0.36868 0.14418 0.52916h-3.86c-0.26222 0-0.26222-0.002-0.26222 0.2604v0.79794h6.0854v-0.79316c-0.26458-0.00059-0.26458-0.00059-0.154-0.26518 0.094322-0.16043 0.14426-0.34306 0.14469-0.52916-0.0002611-0.23898-0.08212-0.4707-0.23203-0.65681 0.32345-0.60725 0.49811-1.2856 0.49971-1.9792-0.0014-1.9269-1.3038-3.6098-3.1688-4.0943v-1.75h-0.5292v-0.52917zm0 5.2917v0.26458h1.0583v-0.26zm3.4396 3.2107c0.27251 0.00012 0.49339 0.221 0.49351 0.49351-0.0001222 0.2725-0.221 0.49338-0.49351 0.49351-0.27251-0.00013-0.49339-0.22101-0.49351-0.49351 0.0001222-0.27251 0.221-0.49339 0.49351-0.49351z"/></g></svg>