<svg xmlns="http://www.w3.org/2000/svg" xmlns:osb="http://www.openswatchbook.org/uri/2009/osb" id="svg8" width="48" height="48" version="1.1" viewBox="0 0 12.7 12.7"><title id="title4753">UIO-icon</title><metadata id="metadata5"/><g id="layer1" fill="#333" transform="translate(0,-284.3)"><path id="path1458" fill-rule="evenodd" d="m6.35 285.36c-2.9225-1e-7 -5.2917 2.3692-5.2917 5.2917-7.9e-8 2.9225 2.3692 5.2917 5.2917 5.2917 2.9225 1e-7 5.2917-2.3692 5.2917-5.2917 7e-8 -2.9225-2.3692-5.2917-5.2917-5.2917zm0 0.13694c2.847-1e-7 5.1547 2.3077 5.1547 5.1547 8e-8 2.847-2.3077 5.1547-5.1547 5.1547-2.847 1e-7 -5.1547-2.3077-5.1547-5.1547-7.9e-8 -2.847 2.3077-5.1547 5.1547-5.1547zm-1.8133 2.4779c-0.51652 0.0000731-0.93523 0.55482-0.93534 1.2392-0.00010639 0.68458 0.41868 1.2396 0.93534 1.2397 0.51687 0.0003052 0.93597-0.55487 0.93586-1.2397-0.00010895-0.68465-0.41914-1.2395-0.93586-1.2392zm3.4143 0c-0.51652 0.0000731-0.93523 0.55482-0.93534 1.2392-0.00010639 0.68458 0.41868 1.2396 0.93534 1.2397 0.51687 0.0003052 0.93597-0.55487 0.93586-1.2397-0.00010895-0.68465-0.41914-1.2395-0.93586-1.2392zm-3.5522 4.2721-0.040824 0.12971 3.9439 1.2397 0.040824-0.12971z"/></g></svg>