<svg xmlns="http://www.w3.org/2000/svg" xmlns:osb="http://www.openswatchbook.org/uri/2009/osb" id="svg8" width="48" height="48" version="1.1" viewBox="0 0 12.7 12.7"><title id="title4753">UIO-icon</title><metadata id="metadata5"/><g id="layer1" fill="#333" transform="translate(0,-284.3)"><path id="rect1054" fill-rule="evenodd" d="m24 4.5176c-10.76 0-19.482 8.7224-19.482 19.482-0.0004 10.76 8.722 19.482 19.482 19.482s19.482-8.722 19.482-19.482-8.722-19.482-19.482-19.482zm-6.854 9.3654c1.9529-0.001153 3.5367 2.0959 3.5371 4.6836 0.00040246 2.5884-1.5836 4.6867-3.5371 4.6855-1.9528-0.00027627-3.5356-2.0981-3.5352-4.6855 0.00041182-2.5866 1.583-4.6833 3.5352-4.6836zm12.904 0c1.9529-0.001153 3.5367 2.0959 3.5371 4.6836 0.00040246 2.5884-1.5836 4.6867-3.5371 4.6855-1.9528-0.00027627-3.5356-2.0981-3.5352-4.6855 0.00041182-2.5866 1.583-4.6833 3.5352-4.6836zm-13.425 16.146l14.906 4.6855-0.1543 0.49023-14.906-4.6855z" transform="matrix(.26458 0 0 .26458 0 284.3)"/></g></svg>