<svg xmlns="http://www.w3.org/2000/svg" xmlns:osb="http://www.openswatchbook.org/uri/2009/osb" id="svg8" width="48" height="48" version="1.1" viewBox="0 0 12.7 12.7"><title id="title4753">UIO-icon</title><metadata id="metadata5"/><g id="layer1" fill="#333" transform="translate(0,-284.3)"><path id="path9693" d="m9.1821 285.36c-0.73314-0.012693-1.6826 0.2455-2.8464 0.84983-4.5336-2.3413-5.6729 0.66011-3.856 4.5057 0.96344 0.00684 1.3238 0.0053 1.9239 0.00699l0.23451 1.2785 3.5677-0.96762 0.061854-0.29583c0.53676 0.0021 0.84154 0.0003488 1.6604 0.00699 1.7104-2.8717 1.4534-5.3465-0.74602-5.3846zm-1.079 6.1661-3.3837 0.91706 0.11134 0.60725 3.1315-0.84929zm-0.24419 1.1677-2.947 0.79873 0.11134 0.60725 2.6947-0.73096zm-0.24419 1.1677-2.5102 0.6804 0.11134 0.60725 2.258-0.61209zm-0.24365 1.1677-2.074 0.56207 0.066695 0.36413h1.8137z"/></g></svg>