<svg xmlns="http://www.w3.org/2000/svg" xmlns:osb="http://www.openswatchbook.org/uri/2009/osb" id="svg8" width="48" height="48" version="1.1" viewBox="0 0 12.7 12.7"><title id="title4753">UIO-icon</title><metadata id="metadata5"/><g id="layer1" fill="#333" transform="translate(0,-284.3)"><path id="rect1040" fill-rule="evenodd" d="m24 4.5176c-10.76 0-19.482 8.7224-19.482 19.482-0.0004 10.76 8.722 19.482 19.482 19.482s19.482-8.722 19.482-19.482-8.722-19.482-19.482-19.482zm-6.854 9.3654c1.953-0.001 3.537 2.096 3.538 4.683 0 2.589-1.584 4.687-3.538 4.686-1.952 0-3.535-2.098-3.535-4.686 0.001-2.586 1.583-4.683 3.535-4.683zm12.905 0c1.953-0.001 3.536 2.096 3.537 4.683 0 2.589-1.584 4.687-3.537 4.686-1.953 0-3.536-2.098-3.535-4.686 0-2.586 1.583-4.683 3.535-4.683zm-18.914 14.49h0.504c0.041 3.603 2.31 6.919 5.966 8.723 3.698 1.822 8.255 1.822 11.954 0.002 3.657-1.802 5.928-5.117 5.972-8.719h0.528c-0.001 3.789-2.376 7.291-6.233 9.185-3.857 1.895-8.609 1.894-12.465-0.002-3.855-1.896-6.229-5.399-6.226-9.189z" transform="matrix(.26458 0 0 .26458 0 284.3)"/></g></svg>