<svg xmlns="http://www.w3.org/2000/svg" xmlns:osb="http://www.openswatchbook.org/uri/2009/osb" id="svg8" width="48" height="48" version="1.1" viewBox="0 0 12.7 12.7"><title id="title4753">UIO-icon</title><metadata id="metadata5"/><g id="layer1" fill="#333" transform="translate(0,-284.3)"><path id="path1298" fill-rule="evenodd" d="m24 4c-11.046-3.78e-7 -20 8.9543-20 20-3.02e-7 11.046 8.9543 20 20 20 11.046 3.8e-7 20-8.9543 20-20 3e-7 -11.046-8.9543-20-20-20zm0 0.51758c10.76 0 19.482 8.7224 19.482 19.482s-8.722 19.482-19.482 19.482-19.482-8.722-19.482-19.482c-0.0004-10.76 8.722-19.482 19.482-19.482zm-6.854 9.3654c-1.9522 0.00027622-3.5347 2.097-3.5352 4.6836-0.00040213 2.5874 1.5824 4.6853 3.5352 4.6855 1.9535 0.001153 3.5375-2.0971 3.5371-4.6855-0.00041188-2.5877-1.5842-4.6847-3.5371-4.6836zm12.904 0c-1.9522 0.00027623-3.5347 2.097-3.5352 4.6836-0.00040213 2.5874 1.5824 4.6853 3.5352 4.6855 1.9535 0.001153 3.5375-2.0971 3.5371-4.6855-0.00041188-2.5877-1.5842-4.6847-3.5371-4.6836zm-18.914 14.49c-0.002617 3.7899 2.371 7.293 6.2266 9.1895 3.8561 1.896 8.6079 1.8967 12.465 0.001953 3.8564-1.8945 6.2322-5.396 6.2324-9.1855h-0.52734c-0.044333 3.6022-2.315 6.9169-5.9727 8.7188-3.6986 1.8207-8.2553 1.8199-11.953-0.001953-3.6568-1.8039-5.9253-5.1201-5.9668-8.7227z" transform="matrix(.26458 0 0 .26458 0 284.3)"/></g></svg>