<svg xmlns="http://www.w3.org/2000/svg" xmlns:osb="http://www.openswatchbook.org/uri/2009/osb" id="svg8" width="48" height="48" version="1.1" viewBox="0 0 12.7 12.7"><title id="title4753">UIO-icon</title><metadata id="metadata5"/><g id="layer1" fill="#333" transform="translate(0,-284.3)"><path id="rect881" fill-rule="evenodd" d="m0 0v48h48v-48h-48zm13.301 4.0078c1.663-0.038 3.356 0.3608 4.902 1.2383 4.11 2.3424 5.832 7.3099 4.182 11.641-0.316 0.757-0.8 0.678-1.213 0.443l-14.869-8.4648c-0.4177-0.2376-0.8692-0.4987-0.26-1.2363 1.7957-2.283 4.486-3.5577 7.258-3.6211zm-8.1076 5.5195c0.2121-0.038 0.4403 0.0518 0.6582 0.1758l14.798 8.4239c0.465 0.265 0.927 0.527 0.28 1.299-2.878 3.626-8.022 4.682-12.133 2.349-4.1157-2.345-5.8358-7.323-4.174-11.658 0.1613-0.3849 0.3582-0.5516 0.5704-0.5897zm29.53 15.479c2.767 0.083 5.443 1.371 7.222 3.656 0.484 0.663 0.168 1.034-0.248 1.266l-14.959 8.324c-0.42 0.234-0.876 0.481-1.191-0.422-1.634-4.35 0.13-9.317 4.271-11.629 1.552-0.862 3.244-1.245 4.905-1.195zm8.066 5.543c0.215 0.022 0.412 0.195 0.574 0.672 1.609 4.34-0.158 9.285-4.287 11.59-4.142 2.302-9.293 1.193-12.138-2.475-0.492-0.675-0.156-1.022 0.283-1.266l14.886-8.283c0.234-0.13 0.467-0.26 0.682-0.238z" transform="matrix(.26458 0 0 .26458 0 284.3)"/></g></svg>