<svg xmlns="http://www.w3.org/2000/svg" xmlns:osb="http://www.openswatchbook.org/uri/2009/osb" id="svg8" width="48" height="48" version="1.1" viewBox="0 0 12.7 12.7"><title id="title4753">UIO-icon</title><metadata id="metadata5"/><g id="layer1" fill="#333" transform="translate(0,-284.3)"><path id="rect883" fill-rule="evenodd" d="m0 0v48h48v-48h-48zm24 4c9.951 0.005 18.267 7.295 19.754 16.928 0.21 1.713-0.754 2.072-1.754 2.072h-35.99c-1.0106 0-2.1065-0.01-1.76-1.992 1.4526-9.666 9.778-16.995 19.75-17.008zm-17.945 21h35.82c1.125 0 2.242-0.004 1.861 2.08-1.489 9.623-9.794 16.907-19.736 16.92-9.964-0.005-18.289-7.315-19.76-16.967-0.2115-1.743 0.7601-2.033 1.8147-2.033z" transform="matrix(.26458 0 0 .26458 0 284.3)"/></g></svg>