<svg xmlns="http://www.w3.org/2000/svg" xmlns:osb="http://www.openswatchbook.org/uri/2009/osb" xmlns:svg="http://www.w3.org/2000/svg" id="svg8" width="48" height="48" enable-background="new" version="1.1" viewBox="0 0 12.7 12.7"><title id="title4753">UIO-icon</title><defs id="defs2"><clipPath id="clipPath847" clipPathUnits="userSpaceOnUse"><rect id="rect849" width="101.587" height="101.696" x="68.721" y="248.867" fill="red" fill-opacity=".523" stroke="none" stroke-dasharray="none" stroke-linecap="round" stroke-linejoin="round" stroke-miterlimit="4" stroke-opacity="1" stroke-width=".816"/></clipPath><linearGradient id="linearGradient17002" gradientTransform="matrix(0.00229968,0,0,0.00764365,-480.76794,1614.5601)" osb:paint="solid"><stop id="stop17004" offset="0" stop-color="#283593" stop-opacity="1"/></linearGradient><clipPath id="clipPath83799-06" clipPathUnits="userSpaceOnUse"><circle id="circle83801-32" cx="1629.784" cy="2526.709" r="16.426" fill="#fff" fill-opacity="1" stroke="#ccc" stroke-dasharray="none" stroke-linecap="round" stroke-linejoin="round" stroke-miterlimit="4" stroke-opacity="1" stroke-width=".499" opacity="1"/></clipPath><linearGradient id="linearGradient17020" gradientTransform="matrix(8.4815637e-7,0,0,8.4815637e-7,1622.9529,2135.1955)" osb:paint="solid"><stop id="stop17022" offset="0" stop-color="#536dfe" stop-opacity="1"/></linearGradient><linearGradient id="linearGradient17014" gradientTransform="matrix(0.00634403,0,0,0.00634403,-2363.0635,2243.3806)" osb:paint="solid"><stop id="stop17016" offset="0" stop-color="#8c9eff" stop-opacity="1"/></linearGradient><clipPath id="clipPath83799-06-6" clipPathUnits="userSpaceOnUse"><circle id="circle83801-32-7" cx="1629.784" cy="2526.709" r="16.426" fill="#fff" fill-opacity="1" stroke="#ccc" stroke-dasharray="none" stroke-linecap="round" stroke-linejoin="round" stroke-miterlimit="4" stroke-opacity="1" stroke-width=".499" opacity="1"/></clipPath><clipPath id="clipPath83799-06-8" clipPathUnits="userSpaceOnUse"><circle id="circle83801-32-4" cx="1629.784" cy="2526.709" r="16.426" fill="#fff" fill-opacity="1" stroke="#ccc" stroke-dasharray="none" stroke-linecap="round" stroke-linejoin="round" stroke-miterlimit="4" stroke-opacity="1" stroke-width=".499" opacity="1"/></clipPath><linearGradient id="linearGradient19224" osb:paint="solid"><stop id="stop19226" offset="0" stop-color="#7e57c2" stop-opacity="1"/></linearGradient><clipPath id="clipPath83799-06-9" clipPathUnits="userSpaceOnUse"><circle id="circle83801-32-1" cx="1629.784" cy="2526.709" r="16.426" fill="#fff" fill-opacity="1" stroke="#ccc" stroke-dasharray="none" stroke-linecap="round" stroke-linejoin="round" stroke-miterlimit="4" stroke-opacity="1" stroke-width=".499" opacity="1"/></clipPath><clipPath id="clipPath83799-06-85" clipPathUnits="userSpaceOnUse"><circle id="circle83801-32-5" cx="1629.784" cy="2526.709" r="16.426" fill="#fff" fill-opacity="1" stroke="#ccc" stroke-dasharray="none" stroke-linecap="round" stroke-linejoin="round" stroke-miterlimit="4" stroke-opacity="1" stroke-width=".499" opacity="1"/></clipPath><linearGradient id="linearGradient6475" osb:paint="solid"><stop id="stop6473" offset="0" stop-color="#000" stop-opacity="1"/></linearGradient><clipPath id="clipPath847-3" clipPathUnits="userSpaceOnUse"><rect id="rect849-1" width="101.587" height="101.696" x="68.721" y="248.867" fill="red" fill-opacity=".523" stroke="none" stroke-dasharray="none" stroke-linecap="round" stroke-linejoin="round" stroke-miterlimit="4" stroke-opacity="1" stroke-width=".816"/></clipPath><clipPath id="clipPath83799-06-1" clipPathUnits="userSpaceOnUse"><circle id="circle83801-32-49" cx="1629.784" cy="2526.709" r="16.426" fill="#fff" fill-opacity="1" stroke="#ccc" stroke-dasharray="none" stroke-linecap="round" stroke-linejoin="round" stroke-miterlimit="4" stroke-opacity="1" stroke-width=".499" opacity="1"/></clipPath><clipPath id="clipPath83799-06-6-1" clipPathUnits="userSpaceOnUse"><circle id="circle83801-32-7-1" cx="1629.784" cy="2526.709" r="16.426" fill="#fff" fill-opacity="1" stroke="#ccc" stroke-dasharray="none" stroke-linecap="round" stroke-linejoin="round" stroke-miterlimit="4" stroke-opacity="1" stroke-width=".499" opacity="1"/></clipPath><clipPath id="clipPath83799-06-8-1" clipPathUnits="userSpaceOnUse"><circle id="circle83801-32-4-2" cx="1629.784" cy="2526.709" r="16.426" fill="#fff" fill-opacity="1" stroke="#ccc" stroke-dasharray="none" stroke-linecap="round" stroke-linejoin="round" stroke-miterlimit="4" stroke-opacity="1" stroke-width=".499" opacity="1"/></clipPath><clipPath id="clipPath83799-06-9-4" clipPathUnits="userSpaceOnUse"><circle id="circle83801-32-1-0" cx="1629.784" cy="2526.709" r="16.426" fill="#fff" fill-opacity="1" stroke="#ccc" stroke-dasharray="none" stroke-linecap="round" stroke-linejoin="round" stroke-miterlimit="4" stroke-opacity="1" stroke-width=".499" opacity="1"/></clipPath><clipPath id="clipPath83799-06-85-7" clipPathUnits="userSpaceOnUse"><circle id="circle83801-32-5-8" cx="1629.784" cy="2526.709" r="16.426" fill="#fff" fill-opacity="1" stroke="#ccc" stroke-dasharray="none" stroke-linecap="round" stroke-linejoin="round" stroke-miterlimit="4" stroke-opacity="1" stroke-width=".499" opacity="1"/></clipPath><clipPath id="clipPath847-2" clipPathUnits="userSpaceOnUse"><rect id="rect849-8" width="101.587" height="101.696" x="68.721" y="248.867" fill="red" fill-opacity=".523" stroke="none" stroke-dasharray="none" stroke-linecap="round" stroke-linejoin="round" stroke-miterlimit="4" stroke-opacity="1" stroke-width=".816"/></clipPath><clipPath id="clipPath83799-06-0" clipPathUnits="userSpaceOnUse"><circle id="circle83801-32-13" cx="1629.784" cy="2526.709" r="16.426" fill="#fff" fill-opacity="1" stroke="#ccc" stroke-dasharray="none" stroke-linecap="round" stroke-linejoin="round" stroke-miterlimit="4" stroke-opacity="1" stroke-width=".499" opacity="1"/></clipPath><clipPath id="clipPath83799-06-6-3" clipPathUnits="userSpaceOnUse"><circle id="circle83801-32-7-8" cx="1629.784" cy="2526.709" r="16.426" fill="#fff" fill-opacity="1" stroke="#ccc" stroke-dasharray="none" stroke-linecap="round" stroke-linejoin="round" stroke-miterlimit="4" stroke-opacity="1" stroke-width=".499" opacity="1"/></clipPath><clipPath id="clipPath83799-06-8-7" clipPathUnits="userSpaceOnUse"><circle id="circle83801-32-4-9" cx="1629.784" cy="2526.709" r="16.426" fill="#fff" fill-opacity="1" stroke="#ccc" stroke-dasharray="none" stroke-linecap="round" stroke-linejoin="round" stroke-miterlimit="4" stroke-opacity="1" stroke-width=".499" opacity="1"/></clipPath><clipPath id="clipPath83799-06-9-45" clipPathUnits="userSpaceOnUse"><circle id="circle83801-32-1-3" cx="1629.784" cy="2526.709" r="16.426" fill="#fff" fill-opacity="1" stroke="#ccc" stroke-dasharray="none" stroke-linecap="round" stroke-linejoin="round" stroke-miterlimit="4" stroke-opacity="1" stroke-width=".499" opacity="1"/></clipPath><clipPath id="clipPath83799-06-85-8" clipPathUnits="userSpaceOnUse"><circle id="circle83801-32-5-7" cx="1629.784" cy="2526.709" r="16.426" fill="#fff" fill-opacity="1" stroke="#ccc" stroke-dasharray="none" stroke-linecap="round" stroke-linejoin="round" stroke-miterlimit="4" stroke-opacity="1" stroke-width=".499" opacity="1"/></clipPath><clipPath id="clipPath847-0" clipPathUnits="userSpaceOnUse"><rect id="rect849-7" width="101.587" height="101.696" x="68.721" y="248.867" fill="red" fill-opacity=".523" stroke="none" stroke-dasharray="none" stroke-linecap="round" stroke-linejoin="round" stroke-miterlimit="4" stroke-opacity="1" stroke-width=".816"/></clipPath><clipPath id="clipPath83799-06-3" clipPathUnits="userSpaceOnUse"><circle id="circle83801-32-55" cx="1629.784" cy="2526.709" r="16.426" fill="#fff" fill-opacity="1" stroke="#ccc" stroke-dasharray="none" stroke-linecap="round" stroke-linejoin="round" stroke-miterlimit="4" stroke-opacity="1" stroke-width=".499" opacity="1"/></clipPath><clipPath id="clipPath83799-06-6-4" clipPathUnits="userSpaceOnUse"><circle id="circle83801-32-7-5" cx="1629.784" cy="2526.709" r="16.426" fill="#fff" fill-opacity="1" stroke="#ccc" stroke-dasharray="none" stroke-linecap="round" stroke-linejoin="round" stroke-miterlimit="4" stroke-opacity="1" stroke-width=".499" opacity="1"/></clipPath><clipPath id="clipPath83799-06-8-9" clipPathUnits="userSpaceOnUse"><circle id="circle83801-32-4-1" cx="1629.784" cy="2526.709" r="16.426" fill="#fff" fill-opacity="1" stroke="#ccc" stroke-dasharray="none" stroke-linecap="round" stroke-linejoin="round" stroke-miterlimit="4" stroke-opacity="1" stroke-width=".499" opacity="1"/></clipPath><clipPath id="clipPath83799-06-9-47" clipPathUnits="userSpaceOnUse"><circle id="circle83801-32-1-1" cx="1629.784" cy="2526.709" r="16.426" fill="#fff" fill-opacity="1" stroke="#ccc" stroke-dasharray="none" stroke-linecap="round" stroke-linejoin="round" stroke-miterlimit="4" stroke-opacity="1" stroke-width=".499" opacity="1"/></clipPath><clipPath id="clipPath83799-06-85-0" clipPathUnits="userSpaceOnUse"><circle id="circle83801-32-5-71" cx="1629.784" cy="2526.709" r="16.426" fill="#fff" fill-opacity="1" stroke="#ccc" stroke-dasharray="none" stroke-linecap="round" stroke-linejoin="round" stroke-miterlimit="4" stroke-opacity="1" stroke-width=".499" opacity="1"/></clipPath><clipPath id="clipPath847-7" clipPathUnits="userSpaceOnUse"><rect id="rect849-11" width="101.587" height="101.696" x="68.721" y="248.867" fill="red" fill-opacity=".523" stroke="none" stroke-dasharray="none" stroke-linecap="round" stroke-linejoin="round" stroke-miterlimit="4" stroke-opacity="1" stroke-width=".816"/></clipPath><clipPath id="clipPath83799-06-36" clipPathUnits="userSpaceOnUse"><circle id="circle83801-32-8" cx="1629.784" cy="2526.709" r="16.426" fill="#fff" fill-opacity="1" stroke="#ccc" stroke-dasharray="none" stroke-linecap="round" stroke-linejoin="round" stroke-miterlimit="4" stroke-opacity="1" stroke-width=".499" opacity="1"/></clipPath><clipPath id="clipPath83799-06-6-30" clipPathUnits="userSpaceOnUse"><circle id="circle83801-32-7-9" cx="1629.784" cy="2526.709" r="16.426" fill="#fff" fill-opacity="1" stroke="#ccc" stroke-dasharray="none" stroke-linecap="round" stroke-linejoin="round" stroke-miterlimit="4" stroke-opacity="1" stroke-width=".499" opacity="1"/></clipPath><clipPath id="clipPath83799-06-8-5" clipPathUnits="userSpaceOnUse"><circle id="circle83801-32-4-12" cx="1629.784" cy="2526.709" r="16.426" fill="#fff" fill-opacity="1" stroke="#ccc" stroke-dasharray="none" stroke-linecap="round" stroke-linejoin="round" stroke-miterlimit="4" stroke-opacity="1" stroke-width=".499" opacity="1"/></clipPath><clipPath id="clipPath83799-06-9-3" clipPathUnits="userSpaceOnUse"><circle id="circle83801-32-1-11" cx="1629.784" cy="2526.709" r="16.426" fill="#fff" fill-opacity="1" stroke="#ccc" stroke-dasharray="none" stroke-linecap="round" stroke-linejoin="round" stroke-miterlimit="4" stroke-opacity="1" stroke-width=".499" opacity="1"/></clipPath><clipPath id="clipPath83799-06-85-3" clipPathUnits="userSpaceOnUse"><circle id="circle83801-32-5-6" cx="1629.784" cy="2526.709" r="16.426" fill="#fff" fill-opacity="1" stroke="#ccc" stroke-dasharray="none" stroke-linecap="round" stroke-linejoin="round" stroke-miterlimit="4" stroke-opacity="1" stroke-width=".499" opacity="1"/></clipPath></defs><metadata id="metadata5"/><g id="layer1" transform="translate(0,-284.3)"><path id="circle9576" cx="111.06" cy="256.681" r="9.931" fill="#333" fill-opacity="1" stroke="none" stroke-dasharray="none" stroke-linecap="round" stroke-linejoin="round" stroke-miterlimit="4" stroke-opacity="1" stroke-width=".635" display="inline"/><path id="circle9576-2" cx="111.06" cy="256.681" r="9.931" fill="#333" fill-opacity="1" stroke="none" stroke-dasharray="none" stroke-linecap="round" stroke-linejoin="round" stroke-miterlimit="4" stroke-opacity="1" stroke-width=".635" display="inline"/><path id="circle9576-7" cx="111.06" cy="256.681" r="9.931" fill="#333" fill-opacity="1" stroke="none" stroke-dasharray="none" stroke-linecap="round" stroke-linejoin="round" stroke-miterlimit="4" stroke-opacity="1" stroke-width=".635" display="inline"/><path id="circle9576-4" cx="111.06" cy="256.681" r="9.931" fill="#333" fill-opacity="1" stroke="none" stroke-dasharray="none" stroke-linecap="round" stroke-linejoin="round" stroke-miterlimit="4" stroke-opacity="1" stroke-width=".635" display="inline"/><path id="circle9576-49" cx="111.06" cy="256.681" r="9.931" fill="#333" fill-opacity="1" stroke="none" stroke-dasharray="none" stroke-linecap="round" stroke-linejoin="round" stroke-miterlimit="4" stroke-opacity="1" stroke-width=".635" display="inline"/><path id="circle9576-2-1" cx="111.06" cy="256.681" r="9.931" fill="#333" fill-opacity="1" stroke="none" stroke-dasharray="none" stroke-linecap="round" stroke-linejoin="round" stroke-miterlimit="4" stroke-opacity="1" stroke-width=".635" display="inline"/><path id="circle9576-7-0" cx="111.06" cy="256.681" r="9.931" fill="#333" fill-opacity="1" stroke="none" stroke-dasharray="none" stroke-linecap="round" stroke-linejoin="round" stroke-miterlimit="4" stroke-opacity="1" stroke-width=".635" display="inline"/><path id="circle9576-4-7" cx="111.06" cy="256.681" r="9.931" fill="#333" fill-opacity="1" stroke="none" stroke-dasharray="none" stroke-linecap="round" stroke-linejoin="round" stroke-miterlimit="4" stroke-opacity="1" stroke-width=".635" display="inline"/><path id="text9299" fill="#333" fill-opacity="1" stroke="none" stroke-linecap="butt" stroke-linejoin="miter" stroke-opacity="1" stroke-width="1.188" d="M 10.65039062 17.80273438 L 10.65039062 17.8046875 C 10.29395973 17.8046875 10.00582898 17.92187307 9.787109375 18.15820312 C 9.568393747 18.39294202 9.458984375 18.723125 9.458984375 19.1484375 C 9.458984375 19.5504753 9.56759043 19.86717977 9.78515625 20.09960938 C 10.0027181 20.33116211 10.28122414 20.44726562 10.61914062 20.44726562 C 10.89225171 20.44726562 11.11591066 20.37901682 11.29296875 20.24414062 C 11.47118224 20.10847072 11.59940007 19.90194537 11.67578125 19.62304688 L 11.17773438 19.46484375 C 11.13491668 19.65183966 11.06321068 19.78806746 10.96484375 19.875 C 10.86647685 19.9617326 10.74983479 20.00585938 10.61328125 20.00585938 C 10.42812114 20.00585938 10.27783213 19.93843918 10.16210938 19.80078125 C 10.04638379 19.66391712 9.98828125 19.43227667 9.98828125 19.109375 C 9.98828125 18.80501343 10.04717917 18.58520766 10.1640625 18.44921875 C 10.28210361 18.31354883 10.434417 18.24609375 10.62304688 18.24609375 C 10.75960436 18.24609375 10.87581349 18.28457815 10.97070312 18.359375 C 11.06675452 18.4361637 11.13007004 18.54174122 11.16015625 18.67382812 L 11.66796875 18.55078125 C 11.61010795 18.34628235 11.52392474 18.18940852 11.40820312 18.08007812 C 11.21378481 17.8954709 10.9616883 17.80273438 10.65039062 17.80273438 z M 26.56835938 17.8046875 C 26.43296362 17.8046875 26.31957746 17.82763414 26.23046875 17.87695312 C 26.14251775 17.92469612 26.08238765 17.98766826 26.04882812 18.06445312 C 26.01644251 18.14124193 26 18.2565478 26 18.41210938 L 26 18.55273438 L 25.72851562 18.55273438 L 25.72851562 18.9375 L 26 18.9375 L 26 20.40429688 L 26.48828125 20.40429688 L 26.48828125 18.9375 L 26.8515625 18.9375 L 26.8515625 18.55273438 L 26.48828125 18.55273438 L 26.48828125 18.421875 C 26.48828125 18.3275834 26.50308924 18.26464611 26.53320312 18.23242188 C 26.56447492 18.20059828 26.61495062 18.18164063 26.68554688 18.18164062 C 26.75729296 18.18164062 26.83262125 18.18910358 26.91015625 18.20898438 L 26.9765625 17.8671875 C 26.84348227 17.8250155 26.70723172 17.80468762 26.56835938 17.8046875 z M 16.00390625 17.84765625 L 16.00390625 20.40234375 L 16.51757812 20.40234375 L 16.51757812 19.43945312 L 16.85351562 19.43945312 C 17.08612056 19.43945312 17.26405052 19.42814566 17.38671875 19.40429688 C 17.47698125 19.38441658 17.56555057 19.34367938 17.65234375 19.28320312 C 17.74029475 19.22193324 17.81243363 19.13632174 17.86914062 19.02929688 C 17.92584762 18.92227199 17.953125 18.79152342 17.953125 18.63476562 C 17.953125 18.43146108 17.9050115 18.26666215 17.80664062 18.13867188 C 17.70827374 18.00976353 17.58526087 17.92451403 17.43945312 17.88671875 C 17.34455954 17.86283215 17.14058045 17.84765625 16.828125 17.84765625 L 16.00390625 17.84765625 z M 23.57226562 17.84765625 L 23.57226562 20.40234375 L 24.0859375 20.40234375 L 24.0859375 19.43945312 L 24.41992188 19.43945312 C 24.65252679 19.43945312 24.83045677 19.42814566 24.953125 19.40429688 C 25.0433875 19.38441658 25.13195682 19.34367938 25.21875 19.28320312 C 25.306701 19.22193324 25.37883986 19.13632174 25.43554688 19.02929688 C 25.49225386 18.92227199 25.52148438 18.79152342 25.52148438 18.63476562 C 25.52148438 18.43146108 25.47141776 18.26666215 25.37304688 18.13867188 C 25.27467998 18.00976353 25.15362822 17.92451403 25.0078125 17.88671875 C 24.9129189 17.86283215 24.70893941 17.84765625 24.39648438 17.84765625 L 23.57226562 17.84765625 z M 16.51757812 18.27929688 L 16.76757812 18.27929688 C 16.95273427 18.27929688 17.07538461 18.28887585 17.13671875 18.30078125 C 17.22003865 18.31669305 17.28935852 18.35359005 17.34375 18.4140625 C 17.3981415 18.4741381 17.42382812 18.54948082 17.42382812 18.64257812 C 17.42382812 18.71817242 17.40455886 18.78450302 17.36523438 18.84179688 C 17.32703978 18.89869006 17.27335888 18.94169618 17.20507812 18.96875 C 17.13679744 18.9966051 17.00134288 19.0078125 16.79882812 19.0078125 L 16.51757812 19.0078125 L 16.51757812 18.27929688 z M 24.0859375 18.27929688 L 24.33398438 18.27929688 C 24.5191405 18.27929688 24.64179086 18.28887585 24.703125 18.30078125 C 24.7864449 18.31669305 24.85576877 18.35359005 24.91015625 18.4140625 C 24.96454775 18.4741381 24.9921875 18.54948082 24.9921875 18.64257812 C 24.9921875 18.71817242 24.97096522 18.78450302 24.93164062 18.84179688 C 24.89344604 18.89869006 24.84171432 18.94169618 24.7734375 18.96875 C 24.7051608 18.9966051 24.56970385 19.0078125 24.3671875 19.0078125 L 24.0859375 19.0078125 L 24.0859375 18.27929688 z M 18.13867188 18.55273438 L 18.8828125 20.40234375 L 19.32226562 20.40234375 L 20.0546875 18.55273438 L 19.55273438 18.55273438 L 19.20117188 19.49609375 C 19.18263178 19.54821345 19.16659942 19.60137971 19.15039062 19.65429688 C 19.14346764 19.67818346 19.12622236 19.73253278 19.09960938 19.8125 L 18.99804688 19.49609375 L 18.65234375 18.55273438 L 18.13867188 18.55273438 z M 8.2421875 21.640625 C 5.89176457 21.640625 4 23.53238957 4 25.8828125 L 4 25.953125 C 4 28.30354793 5.89176457 30.19726562 8.2421875 30.19726562 L 39.7578125 30.19726562 C 42.10823543 30.19726562 44 28.30354793 44 25.953125 L 44 25.8828125 C 44 23.53238957 42.10823543 21.640625 39.7578125 21.640625 L 8.2421875 21.640625 z M 8.73828125 22.15625 L 39.234375 22.15625 C 41.58479793 22.15625 43.4765625 23.83502077 43.4765625 25.91992188 C 43.4765625 28.00482296 41.58479793 29.68359375 39.234375 29.68359375 L 8.73828125 29.68359375 C 6.38785832 29.68359375 4.49609375 28.00482296 4.49609375 25.91992188 C 4.49609375 23.83502077 6.38785832 22.15625 8.73828125 22.15625 z M 39.78125 23.23828125 A 2.66796878 2.66796878 0 0 0 37.11328125 25.90625 A 2.66796878 2.66796878 0 0 0 39.78125 28.57421875 A 2.66796878 2.66796878 0 0 0 42.44921875 25.90625 A 2.66796878 2.66796878 0 0 0 39.78125 23.23828125 z M 8.55078125 23.515625 C 7.269656267 23.515625 6.23828125 24.54690522 6.23828125 25.82617188 C 6.23828125 27.10543851 7.269656267 28.13476563 8.55078125 28.13476562 L 28.5703125 28.13476562 C 29.85143748 28.13476562 30.8828125 27.10543851 30.8828125 25.82617188 C 30.8828125 24.54690522 29.85143748 23.515625 28.5703125 23.515625 L 8.55078125 23.515625 z M 39.78125 23.75390625 A 2.15234396 2.15234396 0 0 1 41.93359375 25.90625 A 2.15234396 2.15234396 0 0 1 39.78125 28.05859375 A 2.15234396 2.15234396 0 0 1 37.62890625 25.90625 A 2.15234396 2.15234396 0 0 1 39.78125 23.75390625 z M 8.546875 24.02539062 L 10.38867188 24.02539062 L 10.38867188 27.6171875 L 8.546875 27.6171875 C 7.552177079 27.6171875 6.75 26.81501042 6.75 25.8203125 C 6.75 24.82561458 7.552177079 24.02539062 8.546875 24.02539062 z M 10.90234375 24.02539062 L 17.98242188 24.02539062 L 17.98242188 27.6171875 L 10.90234375 27.6171875 L 10.90234375 24.02539062 z M 18.49609375 24.02539062 L 25.59179688 24.02539062 L 25.59179688 27.6171875 L 18.49609375 27.6171875 L 18.49609375 24.02539062 z M 26.10742188 24.02539062 L 28.5625 24.02539062 C 29.55719792 24.02539062 30.359375 24.82561458 30.359375 25.8203125 C 30.359375 26.81501042 29.55719792 27.6171875 28.5625 27.6171875 L 26.10742188 27.6171875 L 26.10742188 24.02539062 z M 34.0625 24.03515625 A 1.87825233 1.87825233 0 0 0 32.18359375 25.9140625 A 1.87825233 1.87825233 0 0 0 34.0625 27.79296875 A 1.87825233 1.87825233 0 0 0 35.94140625 25.9140625 A 1.87825233 1.87825233 0 0 0 34.0625 24.03515625 z M 34.0625 24.54296875 A 1.370019312 1.370019312 0 0 1 35.43359375 25.9140625 A 1.370019312 1.370019312 0 0 1 34.0625 27.28320312 A 1.370019312 1.370019312 0 0 1 32.69335938 25.9140625 A 1.370019312 1.370019312 0 0 1 34.0625 24.54296875 z" font-family="sans-serif" font-size="5.961" font-style="normal" font-weight="normal" letter-spacing="0" transform="matrix(0.2645833333,0,0,0.2645833333,0,284.3)" word-spacing="0" style="line-height:0%"/></g></svg>