<svg xmlns="http://www.w3.org/2000/svg" xmlns:osb="http://www.openswatchbook.org/uri/2009/osb" id="svg8" width="48" height="48" version="1.1" viewBox="0 0 12.7 12.7"><title id="title4753">UIO-icon</title><metadata id="metadata5"/><g id="layer1" transform="translate(0,-284.3)"><path id="rect921" fill="#333" fill-rule="evenodd" d="m0 0v48h48v-48h-48zm24 8.0801c1.933 0 3.5 1.567 3.5 3.4999 0 1.933-1.567 3.5-3.5 3.5s-3.5-1.567-3.5-3.5c0-1.9329 1.567-3.4999 3.5-3.4999zm-0.348 7.8609h0.348 0.34 3.187v0.008c0.576 0.008 1.124 0.327 1.395 0.881l3.869 7.926c0.383 0.784 0.06 1.724-0.725 2.107-0.784 0.383-1.724 0.06-2.107-0.724l-2.719-5.756c-1.061 4.037-0.466 5.978 2.508 10.849h-2.221v7.112c0 0.873-0.703 1.576-1.576 1.576s-1.576-0.703-1.576-1.576v-7.112h-0.375-0.385v7.112c0 0.873-0.703 1.576-1.576 1.576s-1.574-0.703-1.574-1.576v-9.268-1.146-1.186l0.111-5.863-2.537 5.258c-0.383 0.784-1.321 1.107-2.105 0.724-0.785-0.383-1.11-1.323-0.727-2.107l3.869-7.926c0.27-0.552 0.816-0.867 1.389-0.879v-0.008l3.187-0.002z" transform="matrix(.26458 0 0 .26458 0 284.3)"/></g></svg>