<svg xmlns="http://www.w3.org/2000/svg" xmlns:svg="http://www.w3.org/2000/svg" id="svg4764" width="12" height="12" version="1.1"><metadata id="metadata4769"/><g id="layer1" transform="translate(0,-1040.3622)"><g id="triangle-12" fill="#e6f598" fill-opacity="1" stroke="#000" stroke-dasharray="none" stroke-miterlimit="4" stroke-opacity="1" stroke-width=".5" display="inline" image-rendering="auto" opacity="1" transform="translate(29.542373,-130.10169)"><g id="g21914" fill="#e6f598" fill-opacity="1" stroke="#000" stroke-dasharray="none" stroke-miterlimit="4" stroke-opacity="1" stroke-width=".5"><path id="path17844" fill="#e6f598" fill-opacity="1" fill-rule="nonzero" stroke="#000" stroke-dasharray="none" stroke-dashoffset="0" stroke-linecap="butt" stroke-linejoin="miter" stroke-miterlimit="4" stroke-opacity="1" stroke-width=".5" d="m -23.5,1172.3622 c -0.25,0 -0.363045,0.1197 -0.4375,0.25 l -4,7 c -0.04405,0.077 -0.0625,0.1637 -0.0625,0.25 0,0.375 0.25,0.5001 0.5,0.5 l 8,0 c 0.25,10e-5 0.5,-0.125 0.5,-0.5 0,-0.086 -0.01845,-0.1728 -0.0625,-0.25 l -4,-7 c -0.07446,-0.1303 -0.1875,-0.25 -0.4375,-0.25 z" baseline-shift="baseline" color="#000" direction="ltr" display="inline" enable-background="accumulate" font-family="Sans" font-size="medium" font-stretch="normal" font-style="normal" font-variant="normal" font-weight="normal" letter-spacing="normal" opacity=".3" overflow="visible" text-anchor="start" text-decoration="none" visibility="visible" word-spacing="normal" writing-mode="lr-tb" style="line-height:normal;-inkscape-font-specification:Sans;text-indent:0;text-align:start;text-decoration-line:none;text-transform:none;block-progression:tb;marker:none"/><path id="path11349-6" fill="#e6f598" fill-opacity="1" fill-rule="nonzero" stroke="#000" stroke-dasharray="none" stroke-miterlimit="4" stroke-opacity="1" stroke-width=".5" d="m -23.5,1172.3622 c -0.25,0 -0.363045,0.1197 -0.4375,0.25 l -4,7 c -0.04405,0.077 -0.0625,0.1637 -0.0625,0.25 0,0.375 0.25,0.5001 0.5,0.5 l 8,0 c 0.25,10e-5 0.5,-0.125 0.5,-0.5 0,-0.086 -0.01845,-0.1728 -0.0625,-0.25 l -4,-7 c -0.07446,-0.1303 -0.1875,-0.25 -0.4375,-0.25 z" baseline-shift="baseline" color="#000" direction="ltr" display="inline" enable-background="accumulate" font-family="Sans" font-size="medium" font-stretch="normal" font-style="normal" font-variant="normal" font-weight="normal" letter-spacing="normal" overflow="visible" text-anchor="start" text-decoration="none" visibility="visible" word-spacing="normal" writing-mode="lr-tb" style="line-height:normal;-inkscape-font-specification:Sans;text-indent:0;text-align:start;text-decoration-line:none;text-transform:none;block-progression:tb;marker:none"/></g></g></g><rect id="canvas" width="12" height="12" x="0" y="0" fill="none" stroke="none" visibility="hidden"/></svg>